<svg id="Layer_3" data-name="Layer 3" xmlns="http://www.w3.org/2000/svg" xmlns:xlink="http://www.w3.org/1999/xlink" viewBox="0 0 232.59 45"><defs><style>.cls-1{fill:url(#linear-gradient);}</style><linearGradient id="linear-gradient" x1="110.61" y1="75.3" x2="185.49" y2="205" gradientUnits="userSpaceOnUse"><stop offset="0" stop-color="#78d64b"/><stop offset="1" stop-color="#009a17"/></linearGradient></defs><title>BetaVault_Word</title><path id="BetaVault" class="cls-1" d="M263.18,122v4.63h-.74v-3.25l-1.4,3a.42.42,0,0,1-.8,0l-1.42-2.94v3.25h-.73v-4.31h-1.55v4.31h-.73v-4.31h-1.53v-.73h4.22a.42.42,0,0,1,.33.17,1.19,1.19,0,0,1,.17.3l1.65,3.46,1.63-3.49,0-.07,0,0c.15-.21.3-.32.46-.32a.32.32,0,0,1,.27.13A.45.45,0,0,1,263.18,122Zm-13.63,17.67h5.24v-5h-5.24v-10.1h-5V157.2q0,7.78,8.53,7.78h1.73v-5.13H253a3.85,3.85,0,0,1-2.63-.72,3.42,3.42,0,0,1-.78-2.57ZM238.66,165V124.66h-5V165Zm-27.32,0h8q8.53,0,8.53-7.79V134.76h-5v21.86a3.39,3.39,0,0,1-.79,2.56,3.79,3.79,0,0,1-2.63.73h-8.05c-2,0-3.14-.64-3.41-1.91V134.76H202.8v22.49Q202.8,165,211.34,165Zm-39.15-5.25a8.14,8.14,0,0,0,2.95,3.69,7.33,7.33,0,0,0,4.38,1.56h10.09c2.58,0,4.67-1.29,6.29-3.87a7.25,7.25,0,0,0,1.09-3.86V141.74a11.39,11.39,0,0,0-.11-1.39q-1.27-5.59-7.21-5.59H176.75v5h13.32a1.78,1.78,0,0,1,1.33.61,2.05,2.05,0,0,1,.58,1.43v2.05h-12.5a6.84,6.84,0,0,0-5.95,2.83,10.93,10.93,0,0,0-1.8,6.57v3.64A8.61,8.61,0,0,0,172.19,159.79Zm4.56-2.77v-4.9c0-1.89,1.2-3,3.6-3.23h8.08c2.36.23,3.55,1.31,3.55,3.23V157q0,3-4.19,3h-6.85a6.43,6.43,0,0,1-2.85-.46A2.6,2.6,0,0,1,176.75,157Zm-25.31,5.08c.84,2.3,2.27,3.46,4.27,3.46s3.48-1.16,4.32-3.46l13.61-37.44h-6.26L155.61,157,144,124.66h-6.2Zm-39-2.31a8.18,8.18,0,0,0,2.94,3.69,7.38,7.38,0,0,0,4.39,1.56H129.9c2.58,0,4.67-1.29,6.29-3.87a7.25,7.25,0,0,0,1.09-3.86V141.74a13.9,13.9,0,0,0-.11-1.39q-1.28-5.59-7.21-5.59H117v5h13.32a1.78,1.78,0,0,1,1.33.61,2,2,0,0,1,.57,1.43v2.05H119.77a6.86,6.86,0,0,0-6,2.83,11,11,0,0,0-1.79,6.57v3.64A8.37,8.37,0,0,0,112.48,159.79ZM117,157v-4.9c0-1.89,1.2-3,3.6-3.23h8.08q3.54.35,3.54,3.23V157q0,3-4.18,3h-6.86a6.46,6.46,0,0,1-2.85-.46A2.6,2.6,0,0,1,117,157Zm-14.49-17.24h5.24v-5h-5.24v-10.1h-5v32.66q0,7.78,8.53,7.78h1.73V160H106a3.85,3.85,0,0,1-2.63-.72,3.42,3.42,0,0,1-.78-2.57ZM69.83,162.85A8.31,8.31,0,0,0,75.74,165H87.28v-5H76a3.23,3.23,0,0,1-2.54-.81,5.48,5.48,0,0,1-.93-2.59v-1.33l19.84-9.23v-3.57a7.5,7.5,0,0,0-2.13-5.68,8,8,0,0,0-5.82-2.05H76.9q-9.41,0-9.4,8.76v13.56A7.54,7.54,0,0,0,69.83,162.85Zm2.68-19.25q0-3.82,3.42-3.82h8.28c2.05,0,3.07.88,3.07,2.64v.47l-14.77,6.86ZM47.15,133.37a16.47,16.47,0,0,0-10.4,3.68V121.5H30.58v28.43a16.57,16.57,0,1,0,16.57-16.56ZM57.4,151.16a10.45,10.45,0,0,1-.76,2.84l1.37.8-1.22,2.11-1.38-.8a10.25,10.25,0,0,1-2.08,2.08l.8,1.39L52,160.8l-.79-1.38a10.42,10.42,0,0,1-2.85.76v1.59H45.93v-1.59a10.42,10.42,0,0,1-2.85-.76l-.79,1.38-2.12-1.22.8-1.39a10.78,10.78,0,0,1-2.08-2.08h0l-.8.8H35.44v-2.36l1.31-1.31v-6.63l-1.31-1.32V143h2.64l.8.8h0A10.78,10.78,0,0,1,41,141.68l-.8-1.39,2.12-1.22.79,1.38a10.08,10.08,0,0,1,2.85-.76v-1.6h2.44v1.6a10.08,10.08,0,0,1,2.85.76l.79-1.38,2.12,1.22-.8,1.39a10.25,10.25,0,0,1,2.08,2.08l1.38-.8L58,145.07l-1.37.8a10.36,10.36,0,0,1,.76,2.84H59v2.45Zm-5-1.23a5.38,5.38,0,0,0-.13-1.14L55,148a2.66,2.66,0,0,0-.12-.56,2.73,2.73,0,0,0-.23-.52l-2.7.94a5.25,5.25,0,0,0-4.33-3.12l.06-2.89a3.55,3.55,0,0,0-.57-.06,3.68,3.68,0,0,0-.57.06l.07,2.89a5.25,5.25,0,0,0-4.34,3.12l-2.7-.94a2.73,2.73,0,0,0-.23.52,2.66,2.66,0,0,0-.12.56l2.74.82a5.38,5.38,0,0,0-.13,1.14,5.22,5.22,0,0,0,1.8,3.94l-1.75,2.3a4,4,0,0,0,.43.38,3,3,0,0,0,.49.28l1.64-2.36a5.19,5.19,0,0,0,5.34,0l1.64,2.36a3,3,0,0,0,.49-.28,4,4,0,0,0,.43-.38l-1.74-2.3A5.25,5.25,0,0,0,52.43,149.93Zm-1.14-1.86-2.71,1a1.68,1.68,0,0,0-1-.73l.06-2.86A4.52,4.52,0,0,1,51.29,148.07Zm-4.63-2.64.06,2.86-.1,0a1.71,1.71,0,0,0-.9.7l-2.71-1A4.54,4.54,0,0,1,46.66,145.43Zm-4.06,4.5a4.73,4.73,0,0,1,.1-.93l2.75.83a2,2,0,0,0,.08.64,1.81,1.81,0,0,0,.31.54l-1.74,2.28A4.54,4.54,0,0,1,42.6,149.93Zm4.55,4.55a4.54,4.54,0,0,1-2.25-.61l1.63-2.36a1.68,1.68,0,0,0,1.15,0l.09,0,1.63,2.36A4.51,4.51,0,0,1,47.15,154.48ZM48.46,151a1.65,1.65,0,0,0,.38-1.17L51.6,149a4.08,4.08,0,0,1,.1.93,4.54,4.54,0,0,1-1.5,3.36Z" transform="translate(-30.58 -121.5)"/></svg>