<svg id="Layer_3" data-name="Layer 3" xmlns="http://www.w3.org/2000/svg" xmlns:xlink="http://www.w3.org/1999/xlink" viewBox="0 0 119.28 162"><defs><style>.cls-1{fill:url(#linear-gradient);}</style><linearGradient id="linear-gradient" x1="84.77" y1="62.77" x2="173.82" y2="217.02" gradientUnits="userSpaceOnUse"><stop offset="0" stop-color="#78d64b"/><stop offset="0.18" stop-color="#74d449"/><stop offset="0.36" stop-color="#67ce44"/><stop offset="0.55" stop-color="#53c33b"/><stop offset="0.74" stop-color="#36b52e"/><stop offset="0.93" stop-color="#11a21e"/><stop offset="1" stop-color="#009a17"/></linearGradient></defs><title>BetaVault_B</title><path class="cls-1" d="M171.15,154.39l-9.73,3.4a18.94,18.94,0,0,0-15.6-11.25l.22-10.39a10,10,0,0,0-4.08,0l.22,10.39a18.94,18.94,0,0,0-15.6,11.25l-9.73-3.4a10.94,10.94,0,0,0-.83,1.88,12.06,12.06,0,0,0-.44,2l9.88,3a18.66,18.66,0,0,0,6,18.28l-6.28,8.26a12.58,12.58,0,0,0,1.54,1.36,10.93,10.93,0,0,0,1.77,1l5.92-8.52a18.48,18.48,0,0,0,19.2,0l5.92,8.52a10.93,10.93,0,0,0,1.77-1,11.78,11.78,0,0,0,1.53-1.36l-6.27-8.26a18.66,18.66,0,0,0,6-18.28l9.88-3a12.06,12.06,0,0,0-.44-2A10.94,10.94,0,0,0,171.15,154.39Zm-25.39-5.23a16.34,16.34,0,0,1,13.16,9.5l-9.78,3.41a6.15,6.15,0,0,0-3.6-2.63Zm-3.52,0,.22,10.3c-.13,0-.26,0-.38.08a6.14,6.14,0,0,0-3.22,2.53l-9.78-3.41A16.34,16.34,0,0,1,142.24,149.16ZM133,177.45a16.27,16.27,0,0,1-5.41-12.09A16.06,16.06,0,0,1,128,162l9.92,3a6.2,6.2,0,0,0,.29,2.28,6.35,6.35,0,0,0,1.09,2Zm11,4.29a16.27,16.27,0,0,1-8.1-2.22l5.88-8.48a6,6,0,0,0,4.14.14,2.71,2.71,0,0,0,.3-.13l5.88,8.47A16.27,16.27,0,0,1,144,181.74Zm11-4.29-6.24-8.21a6.11,6.11,0,0,0,1.36-4.23l9.94-3a16.06,16.06,0,0,1,.35,3.35A16.27,16.27,0,0,1,155,177.45Zm-11-71.73A59.38,59.38,0,0,0,106.56,119V63H84.36V165.36A59.64,59.64,0,1,0,144,105.72Zm42.62,64h-5.74A37.19,37.19,0,0,1,178.16,180l5,2.86-4.4,7.62-5-2.88a37.13,37.13,0,0,1-7.48,7.49l2.88,5-7.62,4.4-2.86-4.95a36.93,36.93,0,0,1-10.24,2.72V208h-8.8v-5.74a36.93,36.93,0,0,1-10.24-2.72l-2.86,4.95-7.62-4.4,2.88-5a37.13,37.13,0,0,1-7.48-7.49l0,0-2.88,2.89h-9.52V182c1.85-1.85,2.89-2.9,4.73-4.73V153.42l-4.73-4.72v-8.49h9.52l2.88,2.89,0,0a37.08,37.08,0,0,1,7.48-7.48l-2.88-5,7.62-4.4,2.86,5a37,37,0,0,1,10.24-2.73v-5.74h8.8v5.74a37,37,0,0,1,10.24,2.73l2.86-5,7.62,4.4-2.88,5a37.08,37.08,0,0,1,7.48,7.48l5-2.88,4.4,7.62-5,2.86A37.38,37.38,0,0,1,180.88,161h5.74Z" transform="translate(-84.36 -63)"/></svg>