<svg id="Layer_3" data-name="Layer 3" xmlns="http://www.w3.org/2000/svg" xmlns:xlink="http://www.w3.org/1999/xlink" viewBox="0 0 226.67 226.67"><defs><style>.cls-1{fill:url(#BetaVault_Gradient);}</style><linearGradient id="BetaVault_Gradient" x1="71.54" y1="18.5" x2="216.46" y2="269.5" gradientUnits="userSpaceOnUse"><stop offset="0" stop-color="#78d64b"/><stop offset="0.18" stop-color="#74d449"/><stop offset="0.36" stop-color="#67ce44"/><stop offset="0.55" stop-color="#53c33b"/><stop offset="0.74" stop-color="#36b52e"/><stop offset="0.93" stop-color="#11a21e"/><stop offset="1" stop-color="#009a17"/></linearGradient></defs><title>BetaVault_Box</title><path class="cls-1" d="M141.51,152.88a8.76,8.76,0,0,0,6,.19c.16,0,.29-.13.44-.19l8.49,12.24a22.93,22.93,0,0,1-23.4,0Zm10-2.61,9,11.86a23.49,23.49,0,0,0,7.82-17.46,24.08,24.08,0,0,0-.5-4.84l-14.36,4.33A8.82,8.82,0,0,1,151.55,150.27Zm.6-10.36L166.27,135a23.57,23.57,0,0,0-19-13.72L147,136.12A8.86,8.86,0,0,1,152.15,139.91ZM142,136.26c.18,0,.36-.07.54-.12l-.32-14.87a23.57,23.57,0,0,0-19,13.72l14.13,4.92A8.83,8.83,0,0,1,142,136.26ZM112.6,101.74l-4.16-7.21,11-6.35,4.13,7.15a53.08,53.08,0,0,1,14.8-3.93V83.11h12.7V91.4a53.08,53.08,0,0,1,14.8,3.93L170,88.18l11,6.35-4.16,7.21a53.76,53.76,0,0,1,10.81,10.81l7.21-4.16,6.35,11-7.15,4.13a53.08,53.08,0,0,1,3.93,14.8h8.29V151H198a53.08,53.08,0,0,1-3.93,14.8l7.15,4.13-6.35,11-7.21-4.16a53.76,53.76,0,0,1-10.81,10.81l4.16,7.21-11,6.35L165.87,194a53.43,53.43,0,0,1-14.8,3.93v8.29h-12.7v-8.29a53.43,53.43,0,0,1-14.8-3.93l-4.13,7.15-11-6.35,4.16-7.21a53.76,53.76,0,0,1-10.81-10.81l-.06,0c-1.27,1.26-2.56,2.55-4.17,4.17H83.81V168.74l6.83-6.83V127.42l-6.83-6.82V108.34H97.56l4.16,4.17.07,0A53.76,53.76,0,0,1,112.6,101.74Zm-7.1,27.08a17,17,0,0,0-1.2,2.72,17.59,17.59,0,0,0-.63,2.89L118,138.74a27,27,0,0,0-.68,5.93,27.29,27.29,0,0,0,9.32,20.47l-9.06,11.94a16.7,16.7,0,0,0,2.21,2,17.92,17.92,0,0,0,2.56,1.49l8.55-12.3a26.73,26.73,0,0,0,27.74,0l8.55,12.3a17.92,17.92,0,0,0,2.56-1.49,16.7,16.7,0,0,0,2.21-2l-9.06-11.94a27.29,27.29,0,0,0,9.32-20.47,27,27,0,0,0-.68-5.93l14.28-4.31a17.59,17.59,0,0,0-.63-2.89,17,17,0,0,0-1.2-2.72l-14.06,4.91a27.37,27.37,0,0,0-22.53-16.25l.32-15a14.65,14.65,0,0,0-5.9,0l.32,15a27.37,27.37,0,0,0-22.53,16.25ZM230.33,30.67H90.64v47a86.11,86.11,0,1,1-32.06,67v-114h-.91a27.08,27.08,0,0,0-27,27V230.33a27.08,27.08,0,0,0,27,27H230.33a27.08,27.08,0,0,0,27-27V57.67A27.08,27.08,0,0,0,230.33,30.67ZM128.88,162.13l9-11.86a8.69,8.69,0,0,1-2-6.12l-14.34-4.32a24.08,24.08,0,0,0-.5,4.84A23.49,23.49,0,0,0,128.88,162.13Z" transform="translate(-30.67 -30.67)"/></svg>